<?xml version="1.0" encoding="utf-8"?>
<!-- Generator: Adobe Illustrator 27.4.0, SVG Export Plug-In . SVG Version: 6.00 Build 0)  -->
<svg version="1.1" id="Layer_1" xmlns="http://www.w3.org/2000/svg" xmlns:xlink="http://www.w3.org/1999/xlink" x="0px" y="0px"
	 viewBox="0 0 242.1 31.4" style="enable-background:new 0 0 242.1 31.4;" xml:space="preserve">
<style type="text/css">
	.st0{clip-path:url(#SVGID_00000119834571191687164460000011166005926507894944_);}
	.st1{fill:#58595B;}
</style>
<g>
	<defs>
		<rect id="SVGID_1_" x="-32.1" y="-19.8" width="306.4" height="70.7"/>
	</defs>
	<clipPath id="SVGID_00000023278688087941907990000002557517599943692975_">
		<use xlink:href="#SVGID_1_"  style="overflow:visible;"/>
	</clipPath>
	<g style="clip-path:url(#SVGID_00000023278688087941907990000002557517599943692975_);">
		<path class="st1" d="M1.8,25.2c2.2,2.1,5.1,3.3,8.1,3.4c3.4,0,6.2-2,6.2-5.4c0-7.8-15.5-5.9-15.5-15.5c0-4.5,4-8.3,9.7-8.3
			c3-0.1,6,1,8.3,3L17.1,5c-1.9-1.7-4.3-2.7-6.8-2.7c-4,0-6.5,2.6-6.6,5.3c0,7.4,15.5,5.3,15.5,15.5c0,4.6-3.6,8.4-9.4,8.4
			c-3.7,0.1-7.2-1.4-9.8-4L1.8,25.2z M50.9-0.4c8.7,0,15.8,7,15.8,15.7c0,0.1,0,0.2,0,0.2c0.1,8.8-7,16.1-15.8,16.2c0,0,0,0,0,0
			h-0.1C42,31.6,34.9,24.3,35,15.5c0,0,0,0,0,0v-0.1c0-8.7,7-15.8,15.7-15.8C50.7-0.4,50.8-0.4,50.9-0.4 M50.8,28.9
			c7.2-0.2,12.9-6.1,12.7-13.3v-0.1c0-7.4-5.6-13.1-12.6-13.1c-7,0-12.7,5.7-12.7,12.7c0,0.1,0,0.2,0,0.3
			C38.2,23,43.8,28.8,50.8,28.9 M84.7,0.2h3l-0.1,28.3H102v2.7H84.5L84.7,0.2z M118.6,0.3h3l-0.1,31.1h-3L118.6,0.3z M141.8,0.3h10
			c9.3,0,15.6,5.7,15.6,15.6s-6.3,15.5-15.6,15.5h-10V0.3z M151.4,28.7c7.6,0,12.7-4.5,12.8-12.8s-5.1-12.8-12.7-12.8h-6.7
			l-0.1,25.6H151.4z"/>
		<path class="st1" d="M193.6,31.4c2.6,0.1,5.1-0.8,7.1-2.5c2-1.8,3-4.4,2.9-7.1V0.6h-6.2v20.6c0.1,1.1-0.3,2.2-1,3
			c-0.7,0.7-1.7,1.1-2.8,1.1c-2,0-3.4-1.2-4.3-3.5l-5.3,3C185.6,29.2,188.9,31.4,193.6,31.4"/>
		<path class="st1" d="M231,31.4c3.5,0,6.2-0.9,8.1-2.6c1.9-1.7,3-4.2,2.9-6.8c0.1-2.2-0.8-4.3-2.5-5.7c-1.7-1.4-4.4-2.7-8.1-3.7
			c-1.3-0.3-2.6-0.8-3.8-1.6c-0.7-0.5-1.1-1.3-1.1-2.1c0-0.9,0.4-1.7,1.1-2.2c0.8-0.6,1.9-0.9,2.9-0.9c2.5-0.2,4.8,1.3,5.7,3.7
			l5.2-2.8c-0.8-2-2.2-3.7-4.1-4.9c-2-1.2-4.2-1.8-6.5-1.7c-2.7-0.1-5.4,0.9-7.4,2.6c-2,1.6-3.1,4-3.1,6.5c-0.1,2.1,0.8,4.2,2.3,5.6
			c1.4,1.4,3.9,2.6,7.4,3.7c1.6,0.4,3.1,1,4.5,1.8c0.8,0.4,1.2,1.2,1.2,2.1c0,0.9-0.5,1.8-1.3,2.3c-1,0.6-2.1,1-3.3,0.9
			c-2.9,0.1-5.5-1.6-6.6-4.2l-5.4,2.8c0.9,2.2,2.5,4,4.5,5.2C225.9,30.9,228.5,31.5,231,31.4"/>
	</g>
</g>
</svg>
